<svg width="15" height="17" viewBox="0 0 15 17" fill="none" xmlns="http://www.w3.org/2000/svg">
<path fill-rule="evenodd" clip-rule="evenodd" d="M14.2241 3.10345C14.6526 3.10345 15 3.45081 15 3.87931V3.87931C15 4.30781 14.6526 4.65517 14.2241 4.65517V4.65517C13.7956 4.65517 13.4483 5.00254 13.4483 5.43103V15C13.4483 15.8276 13.0603 16.2931 12.1552 16.2931H3.10345C2.19828 16.2931 1.81034 15.8276 1.81034 15V5.56035C1.81034 5.06043 1.40509 4.65517 0.905172 4.65517H0.775862C0.347365 4.65517 0 4.30781 0 3.87931V3.87931C0 3.45081 0.347365 3.10345 0.775862 3.10345H2.62069C3.17297 3.10345 3.62069 2.65573 3.62069 2.10345V1.2931C3.62069 0.465517 4.00862 0 4.91379 0H10.3448C11.25 0 11.6379 0.465517 11.6379 1.2931V2.10345C11.6379 2.65573 12.0856 3.10345 12.6379 3.10345H14.2241ZM5.17241 2.32759C5.17241 1.89909 5.51978 1.55172 5.94828 1.55172H9.31034C9.73884 1.55172 10.0862 1.89909 10.0862 2.32759V2.32759C10.0862 2.75608 9.73884 3.10345 9.31034 3.10345H5.94828C5.51978 3.10345 5.17241 2.75608 5.17241 2.32759V2.32759ZM4.36207 14.7414C3.80978 14.7414 3.36207 14.2937 3.36207 13.7414V5.65517C3.36207 5.10289 3.80978 4.65517 4.36207 4.65517H10.8966C11.4488 4.65517 11.8966 5.10289 11.8966 5.65517V13.7414C11.8966 14.2937 11.4488 14.7414 10.8966 14.7414H4.36207Z" fill="#BA2118"/>
<path d="M5.17241 7.24138C5.17241 6.81288 5.51978 6.46552 5.94828 6.46552V6.46552C6.37677 6.46552 6.72414 6.81288 6.72414 7.24138V12.1552C6.72414 12.5837 6.37677 12.931 5.94828 12.931V12.931C5.51978 12.931 5.17241 12.5837 5.17241 12.1552V7.24138Z" fill="#BA2118"/>
<path d="M8.53448 7.24138C8.53448 6.81288 8.88185 6.46552 9.31034 6.46552V6.46552C9.73884 6.46552 10.0862 6.81288 10.0862 7.24138V12.1552C10.0862 12.5837 9.73884 12.931 9.31034 12.931V12.931C8.88185 12.931 8.53448 12.5837 8.53448 12.1552V7.24138Z" fill="#BA2118"/>
</svg>
